<?xml version="1.0" encoding="UTF-8"?>
<svg xmlns="http://www.w3.org/2000/svg" id="Layer_1" data-name="Layer 1" viewBox="0 0 24 24">
  <path d="m20,8c-2.866,0-5.22,2.815-5.62,3.322-.562-.19-1.184-.322-1.88-.322-1.345,0-2.586.477-3.618,1.079.2-1.297.171-2.498.14-3.489-.02-.61-.038-1.197.01-1.64l2.988-.95v-1.034l1.98-.788v-.679c0-1.721-1.496-3.5-4-3.5-1.825,0-3.223,1.187-3.323,1.278C-.105,6.496-.037,13.701-.004,17.164l.004.938c.162.231,4.051,5.922,12,5.922s11.839-3.544,12-3.683v-11.597c-.115-.064-1.712-.744-4-.744Zm2,11.381c-1.032.711-4.355,2.643-10,2.643-5.914,0-9.219-3.605-10.002-4.578-.032-3.38-.095-9.972,5.946-14.621.009-.008.967-.824,2.056-.824.998,0,1.567.432,1.827.891l-1.808.719v.929l-2.617.832-.165.469c-.279.788-.249,1.728-.215,2.815.051,1.625-.022,3.846-1.053,5.848l1.535,1.282c.023-.027,2.369-2.784,4.995-2.784,2.065,0,3.381,1.683,3.394,1.7l1.597-1.204c-.037-.05-.493-.637-1.295-1.229.743-.847,2.303-2.267,3.805-2.267.935,0,1.592.109,2,.209v9.172Z"/>
</svg>
