<svg xmlns:dc="http://purl.org/dc/elements/1.1/" xmlns:cc="http://creativecommons.org/ns#" xmlns:rdf="http://www.w3.org/1999/02/22-rdf-syntax-ns#" xmlns:svg="http://www.w3.org/2000/svg" xmlns="http://www.w3.org/2000/svg" xmlns:sodipodi="http://sodipodi.sourceforge.net/DTD/sodipodi-0.dtd" xmlns:inkscape="http://www.inkscape.org/namespaces/inkscape" version="1.1" x="0px" y="0px" viewBox="0 0 100 125"><g transform="translate(0,-952.36218)"><path style="font-size:medium;font-style:normal;font-variant:normal;font-weight:normal;font-stretch:normal;text-indent:0;text-align:start;text-decoration:none;line-height:normal;letter-spacing:normal;word-spacing:normal;text-transform:none;direction:ltr;block-progression:tb;writing-mode:lr-tb;text-anchor:start;baseline-shift:baseline;opacity:1;color:#000000;fill:#000000;fill-opacity:1;stroke:none;stroke-width:2;marker:none;visibility:visible;display:inline;overflow:visible;enable-background:accumulate;font-family:Sans;-inkscape-font-specification:Sans" d="M 25.25 23 C 15.187796 23 7 31.08069 7 41.0625 C 7 48.0358 11.888418 55.0541 18.0625 61.3125 C 24.236582 67.5709 31.775983 73.0741 37.4375 76.8125 A 1.0001 1.0001 0 0 0 38.5625 76.8125 C 40.488145 75.540991 42.642588 74.048093 44.875 72.40625 C 45.307314 72.77638 45.862026 73 46.46875 73 L 48 73 L 48 74.5 L 48 74.53125 C 47.98037 75.87645 49.095658 77 50.4375 77 L 56.0625 77 A 1.0001 1.0001 0 0 0 57.0625 76 L 57.0625 64 L 74.9375 64 L 74.9375 76 A 1.0001 1.0001 0 0 0 75.9375 77 L 81.5625 77 C 82.90431 77 84.019632 75.87645 84 74.53125 C 83.999847 74.52125 84.000291 74.51 84 74.5 L 84 73 L 85.53125 73 C 86.883178 73 88 71.88345 88 70.53125 L 88 64 L 92 64 A 1.0001 1.0001 0 1 0 92 62 L 88 62 L 88 55.46875 C 88 54.11625 86.866942 53.05 85.5625 53 A 1.0001 1.0001 0 0 0 85.53125 53 L 84 53 L 84 51.46875 C 84 50.14245 82.914514 49 81.5625 49 L 75.9375 49 A 1.0001 1.0001 0 0 0 75.84375 49 A 1.0001 1.0001 0 0 0 74.9375 50 L 74.9375 62 L 57.21875 62 C 63.725986 55.569555 69 48.29475 69 41.0625 C 69 31.08069 60.812205 23 50.75 23 C 45.64841 23 41.268947 25.26207 38 28.59375 C 34.731053 25.26207 30.35159 23 25.25 23 z M 25.25 25 C 30.107163 25 34.249241 27.21277 37.25 30.59375 A 1.0001 1.0001 0 0 0 38.75 30.59375 C 41.75076 27.21277 45.892837 25 50.75 25 C 59.741621 25 67 32.17197 67 41.0625 C 67 46.88246 62.77974 53.399558 57.0625 59.34375 L 57.0625 50 A 1.0001 1.0001 0 0 0 56.0625 49 L 50.4375 49 C 49.085528 49 48 50.14235 48 51.46875 L 48 53 L 46.46875 53 A 1.0001 1.0001 0 0 0 46.4375 53 C 45.13304 53.05 44 54.11615 44 55.46875 L 44 62 L 40 62 A 1.0001 1.0001 0 0 0 39.8125 62 A 1.0043849 1.0043849 0 0 0 40 64 L 44 64 L 44 70.53125 C 44 70.541652 43.999868 70.552127 44 70.5625 C 41.883768 72.12381 39.857349 73.51265 38 74.75 C 32.47355 71.0688 25.332541 65.81855 19.5 59.90625 C 16.660161 57.027648 14.159583 54.020809 12.3125 51 L 27.46875 51 L 30.15625 55.5 A 1.0001 1.0001 0 0 0 31.90625 55.40625 L 38.03125 42.3125 L 41.09375 48.4375 A 1.0132183 1.0132183 0 0 0 42.90625 47.53125 L 38.90625 39.53125 A 1.0001 1.0001 0 0 0 37.8125 39 A 1.0001 1.0001 0 0 0 37.09375 39.5625 L 30.875 52.875 L 28.84375 49.46875 A 1.0001 1.0001 0 0 0 28 49 L 11.21875 49 C 9.8352859 46.298897 9 43.606905 9 41.0625 C 9 32.17197 16.25838 25 25.25 25 z M 50.4375 51 L 55.0625 51 L 55.0625 75 L 50.4375 75 C 50.169322 75 49.992769 74.79215 50 74.53125 L 50 72 A 1.0001 1.0001 0 0 0 49 71 L 46.46875 71 C 46.200259 71 46 70.79995 46 70.53125 L 46 55.46875 C 46 55.20975 46.172372 55.023 46.46875 55 L 46.5 55 L 49 55 A 1.0001 1.0001 0 0 0 50 54 L 50 51.46875 C 50 51.17445 50.168992 51 50.4375 51 z M 76.9375 51 L 81.5625 51 C 81.830966 51 82 51.17455 82 51.46875 L 82 54 A 1.0001 1.0001 0 0 0 83 55 L 85.5 55 L 85.53125 55 C 85.827646 55.023 86 55.20985 86 55.46875 L 86 70.53125 C 86 70.79995 85.799782 71 85.53125 71 L 83 71 A 1.0001 1.0001 0 0 0 82 72 L 82 74.53125 A 1.0001 1.0001 0 0 0 82 74.5625 C 82.0072 74.8233 81.83071 75 81.5625 75 L 76.9375 75 L 76.9375 51 z " transform="translate(0,952.36218)"/></g><text x="0" y="115" fill="#000000" font-size="5px" font-weight="bold" font-family="'Helvetica Neue', Helvetica, Arial-Unicode, Arial, Sans-serif">Created by emma mitchell</text><text x="0" y="120" fill="#000000" font-size="5px" font-weight="bold" font-family="'Helvetica Neue', Helvetica, Arial-Unicode, Arial, Sans-serif">from the Noun Project</text></svg>